<?xml version="1.0" encoding="UTF-8" standalone="no"?>
<!-- Created with Inkscape (http://www.inkscape.org/) -->

<svg
   xmlns:dc="http://purl.org/dc/elements/1.1/"
   xmlns:cc="http://creativecommons.org/ns#"
   xmlns:rdf="http://www.w3.org/1999/02/22-rdf-syntax-ns#"
   xmlns:svg="http://www.w3.org/2000/svg"
   xmlns="http://www.w3.org/2000/svg"
   xmlns:sodipodi="http://sodipodi.sourceforge.net/DTD/sodipodi-0.dtd"
   xmlns:inkscape="http://www.inkscape.org/namespaces/inkscape"
   width="744.09448819"
   height="1052.3622047"
   id="svg3996"
   version="1.1"
   inkscape:version="0.48.3.1 r9886"
   sodipodi:docname="produce2.svg">
  <defs
     id="defs3998" />
  <sodipodi:namedview
     id="base"
     pagecolor="#ffffff"
     bordercolor="#666666"
     borderopacity="1.0"
     inkscape:pageopacity="0.0"
     inkscape:pageshadow="2"
     inkscape:zoom="2.8"
     inkscape:cx="476.75779"
     inkscape:cy="513.44519"
     inkscape:document-units="px"
     inkscape:current-layer="layer1"
     showgrid="false"
     inkscape:window-width="1580"
     inkscape:window-height="975"
     inkscape:window-x="0"
     inkscape:window-y="25"
     inkscape:window-maximized="1" />
  <metadata
     id="metadata4001">
    <rdf:RDF>
      <cc:Work
         rdf:about="">
        <dc:format>image/svg+xml</dc:format>
        <dc:type
           rdf:resource="http://purl.org/dc/dcmitype/StillImage" />
        <dc:title></dc:title>
      </cc:Work>
    </rdf:RDF>
  </metadata>
  <g
     inkscape:label="Layer 1"
     inkscape:groupmode="layer"
     id="layer1">
    <g
       id="g4127"
       inkscape:export-filename="/home/basic/Dropbox/produce/Produce_Logo.png"
       inkscape:export-xdpi="600"
       inkscape:export-ydpi="600">
      <path
         d="m 93.526999,327.62029 0,18.0191 -6.907861,0 0,-44.47752 11.437033,0 c 4.257679,4e-5 7.374919,0.95585 9.351719,2.86742 2.34605,2.25921 3.51906,5.71314 3.51906,10.36179 0,4.64871 -1.17301,8.10264 -3.51906,10.3618 -1.04274,0.99927 -2.30265,1.72699 -3.7798,2.18315 -1.47716,0.45619 -3.33444,0.68428 -5.571919,0.68426 l -4.529172,0 m 0,-6.35393 2.997724,0 c 2.541547,2e-5 4.322847,-0.40185 5.343827,-1.20562 1.30336,-0.9775 1.95504,-2.86738 1.95504,-5.66966 0,-2.80221 -0.65168,-4.6921 -1.95504,-5.66966 -1.02098,-0.80371 -2.80228,-1.20559 -5.343827,-1.20561 l -2.997724,0 0,13.75055"
         style="font-size:128.82023621px;font-style:normal;font-variant:normal;font-weight:normal;font-stretch:normal;line-height:125%;letter-spacing:0px;word-spacing:0px;fill:#000000;fill-opacity:1;stroke:none;font-family:'U.S. 101';-inkscape-font-specification:'U.S. 101'"
         id="path3154"
         inkscape:connector-curvature="0" />
      <path
         d="m 124.14747,327.39221 0,18.24718 -6.90786,0 0,-44.47752 10.81802,0 c 3.8232,4e-5 6.75577,0.89068 8.79773,2.6719 2.65019,2.30267 3.97525,5.65884 3.9753,10.06855 -5e-5,5.64797 -1.99855,9.50377 -5.99551,11.56742 l 6.54944,20.16965 -7.2337,0 -5.89776,-18.24718 -4.10566,0 m 0,-6.35395 2.50901,0 c 1.8899,4e-5 3.23673,-0.17375 4.04044,-0.52134 2.02021,-0.86887 3.03033,-2.95427 3.03037,-6.25617 -4e-5,-2.43293 -0.5648,-4.20333 -1.69442,-5.31124 -0.65168,-0.67337 -1.44457,-1.08611 -2.37863,-1.2382 -0.82548,-0.13037 -1.82469,-0.19548 -2.99776,-0.1955 l -2.50901,0 0,13.52245"
         style="font-size:128.82023621px;font-style:normal;font-variant:normal;font-weight:normal;font-stretch:normal;line-height:125%;letter-spacing:0px;word-spacing:0px;fill:#000000;fill-opacity:1;stroke:none;font-family:'U.S. 101';-inkscape-font-specification:'U.S. 101'"
         id="path3156"
         inkscape:connector-curvature="0" />
      <path
         d="m 194.93342,345.63939 0,-44.47752 10.88316,0 c 8.64569,4e-5 12.93594,4.63787 12.87079,13.91348 l 0,16.65057 c 0.0651,9.27565 -4.2251,13.91347 -12.87079,13.91347 l -10.88316,0 m 6.90786,-6.35395 3.3562,0 c 2.36775,-0.0217 4.06217,-0.72767 5.08315,-2.11795 0.6517,-0.91235 1.0644,-1.95505 1.23821,-3.1281 0.17373,-1.19473 0.26067,-2.59586 0.26067,-4.20337 l 0,-12.87077 c 0,-1.95503 -0.10867,-3.46477 -0.32585,-4.52922 -0.21726,-1.08611 -0.60827,-2.0202 -1.17303,-2.80225 -1.02098,-1.39023 -2.7154,-2.09621 -5.08315,-2.11797 l -3.3562,0 0,31.76963"
         style="font-size:128.82023621px;font-style:normal;font-variant:normal;font-weight:normal;font-stretch:normal;line-height:125%;letter-spacing:0px;word-spacing:0px;fill:#000000;fill-opacity:1;stroke:none;font-family:'U.S. 101';-inkscape-font-specification:'U.S. 101'"
         id="path3158"
         inkscape:connector-curvature="0" />
      <path
         d="m 245.28174,301.16187 6.90786,0 0,30.14045 c -5e-5,3.58428 -0.31501,6.24535 -0.94494,7.98312 -1.69441,4.67045 -5.30042,7.00562 -10.81798,7.00562 -4.10564,0 -7.16854,-1.33594 -9.18875,-4.00783 -1.17308,-1.54233 -1.9008,-3.26928 -2.18319,-5.18091 -0.26065,-1.71607 -0.391,-3.64942 -0.391,-5.8 l 0,-30.14045 6.90786,0 0,31.24831 c 0,2.51986 0.32584,4.33372 0.97753,5.44157 0.78201,1.32513 2.07454,1.98763 3.87755,1.98763 1.80299,0 3.09548,-0.6625 3.87755,-1.98763 0.65162,-1.08615 0.97745,-2.89999 0.97751,-5.44157 l 0,-31.24831"
         style="font-size:128.82023621px;font-style:normal;font-variant:normal;font-weight:normal;font-stretch:normal;line-height:125%;letter-spacing:0px;word-spacing:0px;fill:#000000;fill-opacity:1;stroke:none;font-family:'U.S. 101';-inkscape-font-specification:'U.S. 101'"
         id="path3160"
         inkscape:connector-curvature="0" />
      <path
         d="m 286.57384,315.62928 -6.87527,0 c 0,-0.41269 0,-0.71682 0,-0.91235 0,-5.17001 -1.73784,-7.75501 -5.21345,-7.75506 -1.88993,5e-5 -3.24758,0.72775 -4.07306,2.18315 -0.49962,0.9124 -0.80377,1.88992 -0.91234,2.93257 -0.087,0.99929 -0.13037,2.1506 -0.13037,3.45395 l 0,14.79325 c 0,3.10638 0.24979,5.32213 0.74944,6.64719 0.73855,1.91163 2.22658,2.8674 4.46405,2.8674 3.54078,0 5.3112,-2.91086 5.3112,-8.73257 0,-0.26066 0,-0.62995 0,-1.10787 l 6.87532,0 c 0.0217,0.76032 0.0327,1.31425 0.0327,1.66181 -7e-5,4.30114 -0.86895,7.71163 -2.60678,10.23148 -2.04196,2.93256 -5.24607,4.39883 -9.61233,4.39883 -4.62699,0 -7.9506,-1.6509 -9.97081,-4.95276 -1.06444,-1.71613 -1.69436,-3.61689 -1.88986,-5.70226 -0.17382,-1.73783 -0.26069,-3.82322 -0.26069,-6.25619 l 0,-12.4146 c 0,-4.25766 0.27151,-7.21195 0.8146,-8.86293 0.95581,-2.95427 2.6936,-5.05053 5.2135,-6.28877 1.73778,-0.86886 3.73628,-1.30332 5.99551,-1.30336 3.77974,4e-5 6.72317,1.16222 8.83031,3.48652 2.19395,2.43299 3.29098,5.83261 3.29098,10.19887 0,0.34759 -0.0115,0.82549 -0.0325,1.4337"
         style="font-size:128.82023621px;font-style:normal;font-variant:normal;font-weight:normal;font-stretch:normal;line-height:125%;letter-spacing:0px;word-spacing:0px;fill:#000000;fill-opacity:1;stroke:none;font-family:'U.S. 101';-inkscape-font-specification:'U.S. 101'"
         id="path3162"
         inkscape:connector-curvature="0" />
      <path
         d="m 315.77728,301.16187 0,6.35394 -13.2618,0 0,11.69775 9.77525,0 0,6.35392 -9.77525,0 0,13.71796 13.2618,0 0,6.35395 -20.16967,0 0,-44.47752 20.16967,0"
         style="font-size:128.82023621px;font-style:normal;font-variant:normal;font-weight:normal;font-stretch:normal;line-height:125%;letter-spacing:0px;word-spacing:0px;fill:#000000;fill-opacity:1;stroke:none;font-family:'U.S. 101';-inkscape-font-specification:'U.S. 101'"
         id="path3164"
         inkscape:connector-curvature="0" />
      <g
         id="g4122">
        <path
           sodipodi:type="arc"
           style="fill:#fd0000;fill-opacity:1;fill-rule:nonzero;stroke:none"
           id="path3966"
           sodipodi:cx="177.02924"
           sodipodi:cy="719.51691"
           sodipodi:rx="15.404826"
           sodipodi:ry="15.404826"
           d="m 192.43406,719.51691 a 15.404826,15.404826 0 1 1 -30.80965,0 15.404826,15.404826 0 1 1 30.80965,0 z"
           transform="matrix(1.215359,0,0,1.215359,-48.487644,-547.58434)" />
        <g
           id="g3968"
           transform="matrix(0.98602281,0.21145766,-0.21145766,0.98602281,156.76545,-456.13177)"
           style="fill:#43a81b;fill-opacity:1">
          <path
             inkscape:connector-curvature="0"
             id="path3970"
             d="m 160.87318,733.53287 -3.36943,5.20914 7.40247,4.78812 -4.78813,7.40247 5.20914,3.36943 4.78812,-7.40247 7.40247,4.78813 3.36943,-5.20914 -7.40247,-4.78813 4.78813,-7.40246 -5.20914,-3.36943 -4.78813,7.40247 -7.40246,-4.78813 z"
             style="fill:#43a81b;fill-opacity:1;fill-rule:nonzero;stroke:none" />
        </g>
      </g>
    </g>
    <g
       id="g4041"
       transform="matrix(0.81923588,0,0,0.81923588,385.84298,50.549655)"
       style="fill:#000000"
       inkscape:export-filename="/home/basic/Dropbox/produce/Produce_Logo_BW.png"
       inkscape:export-xdpi="600"
       inkscape:export-ydpi="600">
      <path
         inkscape:connector-curvature="0"
         id="path4043"
         style="font-size:128.82023621px;font-style:normal;font-variant:normal;font-weight:normal;font-stretch:normal;line-height:125%;letter-spacing:0px;word-spacing:0px;fill:#000000;fill-opacity:1;stroke:none;font-family:'U.S. 101';-inkscape-font-specification:'U.S. 101'"
         d="m 82.856885,338.20618 0,21.995 -8.432078,0 0,-54.29147 13.96061,0 c 5.197129,6e-5 9.002193,1.16676 11.415176,3.50012 2.863697,2.75771 4.295537,6.97374 4.295537,12.64812 0,5.67444 -1.43184,9.89048 -4.295537,12.64813 -1.272824,1.21975 -2.810728,2.10804 -4.61382,2.66485 -1.803091,0.55685 -4.07018,0.83527 -6.801356,0.83525 l -5.528532,0 m 0,-7.75593 3.659171,0 c 3.102338,3e-5 5.276681,-0.49051 6.522939,-1.47164 1.590946,-1.19318 2.386418,-3.50006 2.386418,-6.92066 0,-3.42052 -0.795472,-5.72742 -2.386418,-6.92067 -1.246258,-0.98105 -3.420601,-1.4716 -6.522939,-1.47163 l -3.659171,0 0,16.7846" />
      <path
         inkscape:connector-curvature="0"
         id="path4045"
         style="font-size:128.82023621px;font-style:normal;font-variant:normal;font-weight:normal;font-stretch:normal;line-height:125%;letter-spacing:0px;word-spacing:0px;fill:#000000;fill-opacity:1;stroke:none;font-family:'U.S. 101';-inkscape-font-specification:'U.S. 101'"
         d="m 120.23375,337.92777 0,22.27341 -8.43208,0 0,-54.29147 13.20502,0 c 4.66679,6e-5 8.24643,1.08721 10.73895,3.26146 3.23495,2.81075 4.85238,6.90746 4.85244,12.29017 -6e-5,6.89419 -2.43953,11.60077 -7.31841,14.11977 l 7.99457,24.62007 -8.82982,0 -7.19909,-22.27341 -5.01158,0 m 0,-7.75594 3.06263,0 c 2.3069,4e-5 3.95091,-0.21209 4.93196,-0.63638 2.46597,-1.06059 3.69897,-3.60613 3.69902,-7.63659 -5e-5,-2.96976 -0.68943,-5.1308 -2.0683,-6.48316 -0.79547,-0.82195 -1.76331,-1.32576 -2.90347,-1.51141 -1.00762,-0.15914 -2.22731,-0.23861 -3.65921,-0.23864 l -3.06263,0 0,16.50618" />
      <path
         inkscape:connector-curvature="0"
         id="path4047"
         style="font-size:128.82023621px;font-style:normal;font-variant:normal;font-weight:normal;font-stretch:normal;line-height:125%;letter-spacing:0px;word-spacing:0px;fill:#000000;fill-opacity:1;stroke:none;font-family:'U.S. 101';-inkscape-font-specification:'U.S. 101'"
         d="m 206.6386,360.20118 0,-54.29147 13.28452,0 c 10.55336,6e-5 15.79026,5.66122 15.71073,16.98349 l 0,20.32451 c 0.0795,11.32232 -5.15737,16.98347 -15.71073,16.98347 l -13.28452,0 m 8.43207,-7.75594 4.09675,0 c 2.89019,-0.0265 4.95849,-0.88823 6.20475,-2.58528 0.79549,-1.11366 1.29926,-2.38643 1.51141,-3.81831 0.21207,-1.45835 0.31819,-3.16864 0.31819,-5.13084 l 0,-15.71071 c 0,-2.3864 -0.13265,-4.22927 -0.39775,-5.52859 -0.2652,-1.32576 -0.74248,-2.46595 -1.43185,-3.42056 -1.24626,-1.69698 -3.31456,-2.55874 -6.20475,-2.5853 l -4.09675,0 0,38.77959" />
      <path
         inkscape:connector-curvature="0"
         id="path4049"
         style="font-size:128.82023621px;font-style:normal;font-variant:normal;font-weight:normal;font-stretch:normal;line-height:125%;letter-spacing:0px;word-spacing:0px;fill:#000000;fill-opacity:1;stroke:none;font-family:'U.S. 101';-inkscape-font-specification:'U.S. 101'"
         d="m 268.09626,305.90971 8.43207,0 0,36.79093 c -5e-5,4.37516 -0.38451,7.62339 -1.15344,9.7446 -2.06828,5.70098 -6.46995,8.55141 -13.20496,8.55141 -5.01155,0 -8.75027,-1.63072 -11.21624,-4.89216 -1.43192,-1.88265 -2.32022,-3.99065 -2.66491,-6.32408 -0.31817,-2.09472 -0.47728,-4.45466 -0.47728,-7.07977 l 0,-36.79093 8.43208,0 0,38.14325 c 0,3.07586 0.39774,5.28995 1.19322,6.64225 0.95456,1.61751 2.53229,2.4262 4.73313,2.4262 2.20082,0 3.7785,-0.80869 4.73313,-2.4262 0.7954,-1.32581 1.19313,-3.53988 1.1932,-6.64225 l 0,-38.14325" />
      <path
         inkscape:connector-curvature="0"
         id="path4051"
         style="font-size:128.82023621px;font-style:normal;font-variant:normal;font-weight:normal;font-stretch:normal;line-height:125%;letter-spacing:0px;word-spacing:0px;fill:#000000;fill-opacity:1;stroke:none;font-family:'U.S. 101';-inkscape-font-specification:'U.S. 101'"
         d="m 318.49945,323.56936 -8.3923,0 c 0,-0.50376 0,-0.87499 0,-1.11367 0,-6.31076 -2.12129,-9.46615 -6.3638,-9.46621 -2.30694,6e-5 -3.96415,0.88833 -4.97177,2.66486 -0.60987,1.11372 -0.98113,2.30693 -1.11365,3.57965 -0.10615,1.21978 -0.15914,2.62513 -0.15914,4.21606 l 0,18.05737 c 0,3.7918 0.30491,6.49646 0.9148,8.1139 0.90152,2.33343 2.71788,3.50009 5.44905,3.50009 4.32205,0 6.48311,-3.55315 6.48311,-10.65941 0,-0.31818 0,-0.76895 0,-1.35233 l 8.39236,0 c 0.0265,0.92809 0.0399,1.60425 0.0399,2.02849 -8e-5,5.25019 -1.06068,9.4132 -3.18197,12.48905 -2.49251,3.57963 -6.40361,5.36944 -11.73328,5.36944 -5.64793,0 -9.7049,-2.01518 -12.17087,-6.04559 -1.29931,-2.09479 -2.06822,-4.41495 -2.30686,-6.96046 -0.21217,-2.12128 -0.3182,-4.66681 -0.3182,-7.63662 l 0,-15.15388 c 0,-5.1971 0.33141,-8.80326 0.99434,-10.81853 1.16671,-3.60612 3.28794,-6.16492 6.36385,-7.67638 2.12122,-1.06058 4.56069,-1.5909 7.31842,-1.59095 4.61374,5e-5 8.20664,1.41866 10.77871,4.25582 2.67805,2.96983 4.01714,7.11958 4.01714,12.44925 0,0.42429 -0.0141,1.00763 -0.0397,1.75005" />
      <path
         inkscape:connector-curvature="0"
         id="path4053"
         style="font-size:128.82023621px;font-style:normal;font-variant:normal;font-weight:normal;font-stretch:normal;line-height:125%;letter-spacing:0px;word-spacing:0px;fill:#000000;fill-opacity:1;stroke:none;font-family:'U.S. 101';-inkscape-font-specification:'U.S. 101'"
         d="m 354.14661,305.90971 0,7.75594 -16.18801,0 0,14.27885 11.93216,0 0,7.75592 -11.93216,0 0,16.74482 16.18801,0 0,7.75594 -24.62009,0 0,-54.29147 24.62009,0" />
      <g
         transform="matrix(1.4835276,0,0,1.4835276,-243.44275,-609.55396)"
         id="g4055"
         style="fill:#000000">
        <path
           transform="translate(103.09853,-81.264482)"
           d="m 192.43406,719.51691 c 0,8.50785 -6.89697,15.40482 -15.40482,15.40482 -8.50785,0 -15.40483,-6.89697 -15.40483,-15.40482 0,-8.50785 6.89698,-15.40483 15.40483,-15.40483 8.50785,0 15.40482,6.89698 15.40482,15.40483 z"
           sodipodi:ry="15.404826"
           sodipodi:rx="15.404826"
           sodipodi:cy="719.51691"
           sodipodi:cx="177.02924"
           id="path4057"
           style="fill:#000000;fill-opacity:1;fill-rule:nonzero;stroke:none"
           sodipodi:type="arc" />
        <g
           style="fill:#000000;fill-opacity:1"
           transform="matrix(0.81130169,0.17398782,-0.17398782,0.81130169,271.98122,-6.0171087)"
           id="g4059">
          <path
             style="fill:#000000;fill-opacity:1;fill-rule:nonzero;stroke:none"
             d="m 160.87318,733.53287 -3.36943,5.20914 7.40247,4.78812 -4.78813,7.40247 5.20914,3.36943 4.78812,-7.40247 7.40247,4.78813 3.36943,-5.20914 -7.40247,-4.78813 4.78813,-7.40246 -5.20914,-3.36943 -4.78813,7.40247 -7.40246,-4.78813 z"
             id="path4061"
             inkscape:connector-curvature="0" />
        </g>
      </g>
    </g>
    <rect
       style="fill:#000000;fill-opacity:1;fill-rule:nonzero;stroke:none"
       id="rect4127"
       width="745.49255"
       height="585.88849"
       x="1.0101526"
       y="466.47369" />
    <g
       id="g4065"
       inkscape:export-filename="/home/basic/Dropbox/produce/Produce_Logo_ondark.png"
       inkscape:export-xdpi="600"
       inkscape:export-ydpi="600">
      <path
         inkscape:connector-curvature="0"
         id="path4065"
         style="font-size:128.82023621px;font-style:normal;font-variant:normal;font-weight:normal;font-stretch:normal;line-height:125%;letter-spacing:0px;word-spacing:0px;fill:#ffffff;fill-opacity:1;stroke:none;font-family:'U.S. 101';-inkscape-font-specification:'U.S. 101'"
         d="m 93.526999,636.92993 0,18.01909 -6.907861,0 0,-44.47752 11.437033,0 c 4.257679,5e-5 7.374919,0.95585 9.351719,2.86742 2.34605,2.25922 3.51906,5.71314 3.51906,10.3618 0,4.6487 -1.17301,8.10263 -3.51906,10.3618 -1.04274,0.99926 -2.30265,1.72698 -3.7798,2.18314 -1.47716,0.45619 -3.33444,0.68428 -5.571919,0.68427 l -4.529172,0 m 0,-6.35394 2.997724,0 c 2.541547,3e-5 4.322847,-0.40184 5.343827,-1.20562 1.30336,-0.9775 1.95504,-2.86737 1.95504,-5.66965 0,-2.80222 -0.65168,-4.69211 -1.95504,-5.66966 -1.02098,-0.80372 -2.80228,-1.20559 -5.343827,-1.20562 l -2.997724,0 0,13.75055" />
      <path
         inkscape:connector-curvature="0"
         id="path4067"
         style="font-size:128.82023621px;font-style:normal;font-variant:normal;font-weight:normal;font-stretch:normal;line-height:125%;letter-spacing:0px;word-spacing:0px;fill:#ffffff;fill-opacity:1;stroke:none;font-family:'U.S. 101';-inkscape-font-specification:'U.S. 101'"
         d="m 124.14747,636.70184 0,18.24718 -6.90786,0 0,-44.47752 10.81802,0 c 3.8232,5e-5 6.75577,0.89068 8.79773,2.6719 2.65019,2.30267 3.97525,5.65884 3.9753,10.06855 -5e-5,5.64797 -1.99855,9.50377 -5.99551,11.56743 l 6.54944,20.16964 -7.2337,0 -5.89776,-18.24718 -4.10566,0 m 0,-6.35394 2.50901,0 c 1.8899,3e-5 3.23673,-0.17375 4.04044,-0.52135 2.02021,-0.86887 3.03033,-2.95427 3.03037,-6.25616 -4e-5,-2.43294 -0.5648,-4.20334 -1.69442,-5.31124 -0.65168,-0.67337 -1.44457,-1.08611 -2.37863,-1.2382 -0.82548,-0.13038 -1.82469,-0.19548 -2.99776,-0.19551 l -2.50901,0 0,13.52246" />
      <path
         inkscape:connector-curvature="0"
         id="path4069"
         style="font-size:128.82023621px;font-style:normal;font-variant:normal;font-weight:normal;font-stretch:normal;line-height:125%;letter-spacing:0px;word-spacing:0px;fill:#ffffff;fill-opacity:1;stroke:none;font-family:'U.S. 101';-inkscape-font-specification:'U.S. 101'"
         d="m 194.93342,654.94902 0,-44.47752 10.88316,0 c 8.64569,5e-5 12.93594,4.63787 12.87079,13.91348 l 0,16.65057 c 0.0651,9.27565 -4.2251,13.91347 -12.87079,13.91347 l -10.88316,0 m 6.90786,-6.35394 3.3562,0 c 2.36775,-0.0217 4.06217,-0.72767 5.08315,-2.11796 0.6517,-0.91235 1.0644,-1.95505 1.23821,-3.12809 0.17373,-1.19474 0.26067,-2.59587 0.26067,-4.20337 l 0,-12.87078 c 0,-1.95503 -0.10867,-3.46477 -0.32585,-4.52922 -0.21726,-1.08611 -0.60827,-2.02019 -1.17303,-2.80225 -1.02098,-1.39022 -2.7154,-2.09621 -5.08315,-2.11797 l -3.3562,0 0,31.76964" />
      <path
         inkscape:connector-curvature="0"
         id="path4071"
         style="font-size:128.82023621px;font-style:normal;font-variant:normal;font-weight:normal;font-stretch:normal;line-height:125%;letter-spacing:0px;word-spacing:0px;fill:#ffffff;fill-opacity:1;stroke:none;font-family:'U.S. 101';-inkscape-font-specification:'U.S. 101'"
         d="m 245.28174,610.4715 6.90786,0 0,30.14045 c -5e-5,3.58429 -0.31501,6.24535 -0.94494,7.98313 -1.69441,4.67044 -5.30042,7.00562 -10.81798,7.00562 -4.10564,0 -7.16854,-1.33595 -9.18875,-4.00784 -1.17308,-1.54233 -1.9008,-3.26928 -2.18319,-5.18091 -0.26065,-1.71607 -0.391,-3.64942 -0.391,-5.8 l 0,-30.14045 6.90786,0 0,31.24832 c 0,2.51985 0.32584,4.33372 0.97753,5.44157 0.78201,1.32512 2.07454,1.98763 3.87755,1.98763 1.80299,0 3.09548,-0.66251 3.87755,-1.98763 0.65162,-1.08615 0.97745,-2.9 0.97751,-5.44157 l 0,-31.24832" />
      <path
         inkscape:connector-curvature="0"
         id="path4073"
         style="font-size:128.82023621px;font-style:normal;font-variant:normal;font-weight:normal;font-stretch:normal;line-height:125%;letter-spacing:0px;word-spacing:0px;fill:#ffffff;fill-opacity:1;stroke:none;font-family:'U.S. 101';-inkscape-font-specification:'U.S. 101'"
         d="m 286.57384,624.93892 -6.87527,0 c 0,-0.4127 0,-0.71682 0,-0.91236 0,-5.17 -1.73784,-7.75501 -5.21345,-7.75506 -1.88993,5e-5 -3.24758,0.72775 -4.07306,2.18315 -0.49962,0.9124 -0.80377,1.88992 -0.91234,2.93258 -0.087,0.99929 -0.13037,2.1506 -0.13037,3.45395 l 0,14.79324 c 0,3.10638 0.24979,5.32213 0.74944,6.6472 0.73855,1.91163 2.22658,2.8674 4.46405,2.8674 3.54078,0 5.3112,-2.91087 5.3112,-8.73257 0,-0.26067 0,-0.62995 0,-1.10788 l 6.87532,0 c 0.0217,0.76032 0.0327,1.31426 0.0327,1.66181 -7e-5,4.30115 -0.86895,7.71163 -2.60678,10.23148 -2.04196,2.93256 -5.24607,4.39884 -9.61233,4.39884 -4.62699,0 -7.9506,-1.65091 -9.97081,-4.95277 -1.06444,-1.71612 -1.69436,-3.61688 -1.88986,-5.70226 -0.17382,-1.73782 -0.26069,-3.82321 -0.26069,-6.25619 l 0,-12.4146 c 0,-4.25765 0.27151,-7.21195 0.8146,-8.86293 0.95581,-2.95426 2.6936,-5.05052 5.2135,-6.28876 1.73778,-0.86887 3.73628,-1.30333 5.99551,-1.30337 3.77974,4e-5 6.72317,1.16222 8.83031,3.48652 2.19395,2.43299 3.29098,5.83262 3.29098,10.19888 0,0.34759 -0.0115,0.82548 -0.0325,1.4337" />
      <path
         inkscape:connector-curvature="0"
         id="path4075"
         style="font-size:128.82023621px;font-style:normal;font-variant:normal;font-weight:normal;font-stretch:normal;line-height:125%;letter-spacing:0px;word-spacing:0px;fill:#ffffff;fill-opacity:1;stroke:none;font-family:'U.S. 101';-inkscape-font-specification:'U.S. 101'"
         d="m 315.77728,610.4715 0,6.35394 -13.2618,0 0,11.69775 9.77525,0 0,6.35393 -9.77525,0 0,13.71796 13.2618,0 0,6.35394 -20.16967,0 0,-44.47752 20.16967,0" />
      <g
         id="g4060">
        <path
           transform="matrix(1.215359,0,0,1.215359,-48.487644,-238.27471)"
           d="m 192.43406,719.51691 a 15.404826,15.404826 0 1 1 -30.80965,0 15.404826,15.404826 0 1 1 30.80965,0 z"
           sodipodi:ry="15.404826"
           sodipodi:rx="15.404826"
           sodipodi:cy="719.51691"
           sodipodi:cx="177.02924"
           id="path4079"
           style="fill:#fd0000;fill-opacity:1;fill-rule:nonzero;stroke:none"
           sodipodi:type="arc" />
        <g
           style="fill:#43a81b;fill-opacity:1"
           transform="matrix(0.98602281,0.21145766,-0.21145766,0.98602281,156.76545,-146.82214)"
           id="g4081">
          <path
             style="fill:#43a81b;fill-opacity:1;fill-rule:nonzero;stroke:none"
             d="m 160.87318,733.53287 -3.36943,5.20914 7.40247,4.78812 -4.78813,7.40247 5.20914,3.36943 4.78812,-7.40247 7.40247,4.78813 3.36943,-5.20914 -7.40247,-4.78813 4.78813,-7.40246 -5.20914,-3.36943 -4.78813,7.40247 -7.40246,-4.78813 z"
             id="path4083"
             inkscape:connector-curvature="0" />
        </g>
      </g>
    </g>
    <g
       id="g4131"
       transform="matrix(0.81923588,0,0,0.81923588,105.64767,48.549655)"
       inkscape:export-filename="/home/basic/Dropbox/produce/Produce_Logo_BW_ondark.png"
       inkscape:export-xdpi="600"
       inkscape:export-ydpi="600">
      <path
         d="m 424.8772,718.20618 0,21.995 -8.43208,0 0,-54.29147 13.96061,0 c 5.19713,6e-5 9.00219,1.16676 11.41517,3.50012 2.8637,2.75771 4.29554,6.97374 4.29554,12.64812 0,5.67444 -1.43184,9.89048 -4.29554,12.64813 -1.27282,1.21975 -2.81073,2.10804 -4.61382,2.66485 -1.80309,0.55685 -4.07018,0.83527 -6.80135,0.83525 l -5.52853,0 m 0,-7.75593 3.65917,0 c 3.10233,3e-5 5.27668,-0.49051 6.52293,-1.47164 1.59095,-1.19318 2.38642,-3.50006 2.38642,-6.92066 0,-3.42052 -0.79547,-5.72742 -2.38642,-6.92067 -1.24625,-0.98105 -3.4206,-1.4716 -6.52293,-1.47163 l -3.65917,0 0,16.7846"
         style="font-size:128.82023621px;font-style:normal;font-variant:normal;font-weight:normal;font-stretch:normal;line-height:125%;letter-spacing:0px;word-spacing:0px;fill:#ffffff;fill-opacity:1;stroke:none;font-family:'U.S. 101';-inkscape-font-specification:'U.S. 101'"
         id="path4087"
         inkscape:connector-curvature="0" />
      <path
         d="m 462.25406,717.92777 0,22.27341 -8.43208,0 0,-54.29147 13.20502,0 c 4.66679,6e-5 8.24643,1.08721 10.73895,3.26146 3.23495,2.81075 4.85238,6.90746 4.85244,12.29017 -6e-5,6.89419 -2.43953,11.60077 -7.31841,14.11977 l 7.99457,24.62007 -8.82982,0 -7.19909,-22.27341 -5.01158,0 m 0,-7.75594 3.06263,0 c 2.3069,4e-5 3.95091,-0.21209 4.93196,-0.63638 2.46597,-1.06059 3.69897,-3.60613 3.69902,-7.63659 -5e-5,-2.96976 -0.68943,-5.1308 -2.0683,-6.48316 -0.79547,-0.82195 -1.76331,-1.32576 -2.90347,-1.51141 -1.00762,-0.15914 -2.22731,-0.23861 -3.65921,-0.23864 l -3.06263,0 0,16.50618"
         style="font-size:128.82023621px;font-style:normal;font-variant:normal;font-weight:normal;font-stretch:normal;line-height:125%;letter-spacing:0px;word-spacing:0px;fill:#ffffff;fill-opacity:1;stroke:none;font-family:'U.S. 101';-inkscape-font-specification:'U.S. 101'"
         id="path4089"
         inkscape:connector-curvature="0" />
      <path
         d="m 548.65891,740.20118 0,-54.29147 13.28452,0 c 10.55336,6e-5 15.79026,5.66122 15.71073,16.98349 l 0,20.32451 c 0.0795,11.32232 -5.15737,16.98347 -15.71073,16.98347 l -13.28452,0 m 8.43207,-7.75594 4.09675,0 c 2.89019,-0.0265 4.95849,-0.88823 6.20475,-2.58528 0.79549,-1.11366 1.29926,-2.38643 1.51141,-3.81831 0.21207,-1.45835 0.31819,-3.16864 0.31819,-5.13084 l 0,-15.71071 c 0,-2.3864 -0.13265,-4.22927 -0.39775,-5.52859 -0.2652,-1.32576 -0.74248,-2.46595 -1.43185,-3.42056 -1.24626,-1.69698 -3.31456,-2.55874 -6.20475,-2.5853 l -4.09675,0 0,38.77959"
         style="font-size:128.82023621px;font-style:normal;font-variant:normal;font-weight:normal;font-stretch:normal;line-height:125%;letter-spacing:0px;word-spacing:0px;fill:#ffffff;fill-opacity:1;stroke:none;font-family:'U.S. 101';-inkscape-font-specification:'U.S. 101'"
         id="path4091"
         inkscape:connector-curvature="0" />
      <path
         d="m 610.11657,685.90971 8.43207,0 0,36.79093 c -5e-5,4.37516 -0.38451,7.62339 -1.15344,9.7446 -2.06828,5.70098 -6.46995,8.55141 -13.20496,8.55141 -5.01155,0 -8.75027,-1.63072 -11.21624,-4.89216 -1.43192,-1.88265 -2.32022,-3.99065 -2.66491,-6.32408 -0.31817,-2.09472 -0.47728,-4.45466 -0.47728,-7.07977 l 0,-36.79093 8.43208,0 0,38.14325 c 0,3.07586 0.39774,5.28995 1.19322,6.64225 0.95456,1.61751 2.53229,2.4262 4.73313,2.4262 2.20082,0 3.7785,-0.80869 4.73313,-2.4262 0.7954,-1.32581 1.19313,-3.53988 1.1932,-6.64225 l 0,-38.14325"
         style="font-size:128.82023621px;font-style:normal;font-variant:normal;font-weight:normal;font-stretch:normal;line-height:125%;letter-spacing:0px;word-spacing:0px;fill:#ffffff;fill-opacity:1;stroke:none;font-family:'U.S. 101';-inkscape-font-specification:'U.S. 101'"
         id="path4093"
         inkscape:connector-curvature="0" />
      <path
         d="m 660.51976,703.56936 -8.3923,0 c 0,-0.50376 0,-0.87499 0,-1.11367 0,-6.31076 -2.12129,-9.46615 -6.3638,-9.46621 -2.30694,6e-5 -3.96415,0.88833 -4.97177,2.66486 -0.60987,1.11372 -0.98113,2.30693 -1.11365,3.57965 -0.10615,1.21978 -0.15914,2.62513 -0.15914,4.21606 l 0,18.05737 c 0,3.7918 0.30491,6.49646 0.9148,8.1139 0.90152,2.33343 2.71788,3.50009 5.44905,3.50009 4.32205,0 6.48311,-3.55315 6.48311,-10.65941 0,-0.31818 0,-0.76895 0,-1.35233 l 8.39236,0 c 0.0265,0.92809 0.0399,1.60425 0.0399,2.02849 -8e-5,5.25019 -1.06068,9.4132 -3.18197,12.48905 -2.49251,3.57963 -6.40361,5.36944 -11.73328,5.36944 -5.64793,0 -9.7049,-2.01518 -12.17087,-6.04559 -1.29931,-2.09479 -2.06822,-4.41495 -2.30686,-6.96046 -0.21217,-2.12128 -0.3182,-4.66681 -0.3182,-7.63662 l 0,-15.15388 c 0,-5.1971 0.33141,-8.80326 0.99434,-10.81853 1.16671,-3.60612 3.28794,-6.16492 6.36385,-7.67638 2.12122,-1.06058 4.56069,-1.5909 7.31842,-1.59095 4.61374,5e-5 8.20664,1.41866 10.77871,4.25582 2.67805,2.96983 4.01714,7.11958 4.01714,12.44925 0,0.42429 -0.0141,1.00763 -0.0397,1.75005"
         style="font-size:128.82023621px;font-style:normal;font-variant:normal;font-weight:normal;font-stretch:normal;line-height:125%;letter-spacing:0px;word-spacing:0px;fill:#ffffff;fill-opacity:1;stroke:none;font-family:'U.S. 101';-inkscape-font-specification:'U.S. 101'"
         id="path4095"
         inkscape:connector-curvature="0" />
      <path
         d="m 696.16692,685.90971 0,7.75594 -16.18801,0 0,14.27885 11.93216,0 0,7.75592 -11.93216,0 0,16.74482 16.18801,0 0,7.75594 -24.62009,0 0,-54.29147 24.62009,0"
         style="font-size:128.82023621px;font-style:normal;font-variant:normal;font-weight:normal;font-stretch:normal;line-height:125%;letter-spacing:0px;word-spacing:0px;fill:#ffffff;fill-opacity:1;stroke:none;font-family:'U.S. 101';-inkscape-font-specification:'U.S. 101'"
         id="path4097"
         inkscape:connector-curvature="0" />
      <g
         style="fill:#ffffff"
         id="g4099"
         transform="matrix(1.4835276,0,0,1.4835276,98.57756,-229.55396)">
        <path
           sodipodi:type="arc"
           style="fill:#ffffff;fill-opacity:1;fill-rule:nonzero;stroke:none"
           id="path4101"
           sodipodi:cx="177.02924"
           sodipodi:cy="719.51691"
           sodipodi:rx="15.404826"
           sodipodi:ry="15.404826"
           d="m 192.43406,719.51691 c 0,8.50785 -6.89697,15.40482 -15.40482,15.40482 -8.50785,0 -15.40483,-6.89697 -15.40483,-15.40482 0,-8.50785 6.89698,-15.40483 15.40483,-15.40483 8.50785,0 15.40482,6.89698 15.40482,15.40483 z"
           transform="translate(103.09853,-81.264482)" />
        <g
           id="g4103"
           transform="matrix(0.81130169,0.17398782,-0.17398782,0.81130169,271.98122,-6.0171087)"
           style="fill:#ffffff;fill-opacity:1">
          <path
             inkscape:connector-curvature="0"
             id="path4105"
             d="m 160.87318,733.53287 -3.36943,5.20914 7.40247,4.78812 -4.78813,7.40247 5.20914,3.36943 4.78812,-7.40247 7.40247,4.78813 3.36943,-5.20914 -7.40247,-4.78813 4.78813,-7.40246 -5.20914,-3.36943 -4.78813,7.40247 -7.40246,-4.78813 z"
             style="fill:#ffffff;fill-opacity:1;fill-rule:nonzero;stroke:none" />
        </g>
      </g>
    </g>
  </g>
</svg>
